<svg xmlns="http://www.w3.org/2000/svg" width="64" height="64" viewBox="0 0 64 64" role="img" aria-label="Boardwalk">
  <rect width="64" height="64" rx="14" fill="#1d2636"/>
  <path d="M30 27c4 7 5 19 1 30h-6c4-10 4-21 1-29z" fill="#d99f5f"/>
  <path d="M30 28c-10-1-17-5-21-11 9-1 17 2 22 8z" fill="#7cc7a2"/>
  <path d="M31 27c-9-6-12-13-12-19 8 4 13 10 14 17z" fill="#5cae91"/>
  <path d="M33 26c-1-9 3-16 10-20 1 10-3 17-8 21z" fill="#7cc7a2"/>
  <path d="M34 27c9-6 18-6 25-2-9 6-17 6-24 4z" fill="#5cae91"/>
  <path d="M32 29c10 1 17 6 20 13-10 0-17-5-21-11z" fill="#7cc7a2"/>
  <path d="M17 58h29c-3 3-24 3-29 0z" fill="#e7c987"/>
</svg>
